<svg xmlns="http://www.w3.org/2000/svg" viewBox="0 0 7913 2502.5" fill="#e8e8e8">
  <title>Maniatiko — Hypnotic Industrial Techno</title>
  <!-- Wordmark: 'Maniatiko' (Elms Sans ExtraLight wt 200, 0.22em tracking) -->
  <g fill="#e8e8e8">
    <rect x="3913.6" y="97.5" width="85.8" height="715.0"/>
    <rect x="3599.0" y="276.2" width="715.0" height="71.5"/>
  </g>
  <g transform="translate(545,2007.5) scale(1,-1)">
    <g transform="translate(0,0)"><path d="M740 0V700H783V0ZM68 0V700H111V0ZM404 0 82 700H132L435 31H414L720 700H769L447 0Z"/></g>
    <g transform="translate(1076,0)"><path d="M5 0 282 700H331L606 0H560L299 672H314L51 0ZM105 176V214H506V176Z"/></g>
    <g transform="translate(1907,0)"><path d="M558 0 71 700H121L609 0ZM68 0V700H111V0ZM570 0V700H613V0Z"/></g>
    <g transform="translate(2807,0)"><path d="M73 0V700H116V0Z"/></g>
    <g transform="translate(3215,0)"><path d="M5 0 282 700H331L606 0H560L299 672H314L51 0ZM105 176V214H506V176Z"/></g>
    <g transform="translate(4046,0)"><path d="M279 0V700H322V0ZM5 662V700H595V662Z"/></g>
    <g transform="translate(4866,0)"><path d="M73 0V700H116V0Z"/></g>
    <g transform="translate(5274,0)"><path d="M472 0 119 370 168 376 526 0ZM73 0V700H116V0ZM94 349 449 700H502L151 349Z"/></g>
    <g transform="translate(6025,0)"><path d="M399 -16Q322 -16 255.5 12.0Q189 40 139.0 90.0Q89 140 61.0 206.5Q33 273 33 350Q33 427 61.0 493.5Q89 560 139.0 610.0Q189 660 255.5 688.0Q322 716 399 716Q476 716 542.5 688.0Q609 660 659.0 610.0Q709 560 737.0 493.5Q765 427 765 350Q765 273 737.0 206.5Q709 140 659.0 90.0Q609 40 542.5 12.0Q476 -16 399 -16ZM399 23Q468 23 526.5 47.5Q585 72 628.0 116.5Q671 161 695.5 220.5Q720 280 720 350Q720 420 695.5 480.0Q671 540 628.0 584.5Q585 629 526.5 653.5Q468 678 399 678Q331 678 272.5 653.5Q214 629 170.5 584.5Q127 540 102.5 480.0Q78 420 78 350Q78 280 102.5 220.5Q127 161 170.5 116.5Q214 72 272.5 47.5Q331 23 399 23Z"/></g>
  </g>
</svg>
